<svg xmlns="http://www.w3.org/2000/svg" xmlns:xlink="http://www.w3.org/1999/xlink" viewBox="0,0,256,256" width="30px" height="30px" fill-rule="nonzero"><g fill="#ffffff" fill-rule="nonzero" stroke="none" stroke-width="1" stroke-linecap="butt" stroke-linejoin="miter" stroke-miterlimit="10" stroke-dasharray="" stroke-dashoffset="0" font-family="none" font-weight="none" font-size="none" text-anchor="none" style="mix-blend-mode: normal"><g transform="scale(8.53333,8.53333)"><path d="M8,2c-0.552,0 -1,0.448 -1,1v24c0,0.552 0.448,1 1,1h14c0.552,0 1,-0.448 1,-1v-24c0,-0.552 -0.448,-1 -1,-1zM9.5,4h11c0.276,0 0.5,0.224 0.5,0.5v12c0,0.276 -0.224,0.5 -0.5,0.5h-11c-0.276,0 -0.5,-0.224 -0.5,-0.5v-12c0,-0.276 0.224,-0.5 0.5,-0.5zM15,19c0.552,0 1,0.448 1,1c0,0.552 -0.448,1 -1,1c-0.552,0 -1,-0.448 -1,-1c0,-0.552 0.448,-1 1,-1zM10.5,23h1.5v1h-2.9082c0.20669,-0.58125 0.75632,-1 1.4082,-1zM13,23h4v1h-4zM18,23h1.5c0.65188,0 1.20151,0.41875 1.4082,1h-2.9082zM9.0918,25h2.9082v1h-1.5c-0.65188,0 -1.20151,-0.41875 -1.4082,-1zM13,25h4v1h-4zM18,25h2.9082c-0.20669,0.58125 -0.75633,1 -1.4082,1h-1.5z"></path></g></g></svg>